<?xml version="1.0" encoding="utf-8"?>
<!-- Generator: Adobe Illustrator 23.0.3, SVG Export Plug-In . SVG Version: 6.00 Build 0)  -->
<svg version="1.1" id="Layer_1" xmlns="http://www.w3.org/2000/svg" xmlns:xlink="http://www.w3.org/1999/xlink" x="0px" y="0px"
	 viewBox="0 0 50.6 50.9" style="enable-background:new 0 0 50.6 50.9;" xml:space="preserve">
<style type="text/css">
	.st0{fill:#FFFFFF;stroke:#000000;stroke-width:3;stroke-linecap:round;stroke-miterlimit:10;}
	.st1{fill:#FFFFFF;}
</style>
<circle class="st0" cx="25.4" cy="25.2" r="23.7"/>
<g>
	<polyline class="st1" points="18.5,24.2 25.3,17.4 32,24.2 	"/>
	<path d="M18.5,25.9c-0.5,0-1-0.2-1.3-0.6c-0.6-0.7-0.5-1.8,0.2-2.5l6.5-6.5c0.8-0.8,2-0.8,2.8,0l6.5,6.5c0.6,0.6,0.8,1.6,0.3,2.3
		c-0.6,0.9-1.9,1-2.7,0.2l-5.5-5.5l-5.5,5.5C19.4,25.7,19,25.9,18.5,25.9z"/>
</g>
<g>
	<polyline class="st1" points="18.5,32.2 25.3,25.4 32,32.2 	"/>
	<path d="M18.5,33.9c-0.5,0-1-0.2-1.3-0.6c-0.6-0.7-0.5-1.8,0.2-2.5l6.5-6.5c0.8-0.8,2-0.8,2.8,0l6.5,6.5c0.6,0.6,0.8,1.6,0.3,2.3
		c-0.6,0.9-1.9,1-2.7,0.2l-5.5-5.5l-5.5,5.5C19.4,33.7,19,33.9,18.5,33.9z"/>
</g>
</svg>
