<?xml version="1.0" encoding="utf-8"?>
<!-- Generator: Adobe Illustrator 23.0.3, SVG Export Plug-In . SVG Version: 6.00 Build 0)  -->
<svg version="1.1" id="Layer_1" xmlns="http://www.w3.org/2000/svg" xmlns:xlink="http://www.w3.org/1999/xlink" x="0px" y="0px"
	 viewBox="0 0 468.2 125.4" style="enable-background:new 0 0 468.2 125.4;" xml:space="preserve">
<style type="text/css">
	.st0{fill:#B3B2B2;}
	.st1{fill:#B26228;}
</style>
<g>
	<g>
		<g>
			<path class="st0" d="M152.6,51.3l0.2,0.2V62l-0.2,0.2H150l-0.2-0.2v-0.4c0-7.6-2.4-7.8-6.5-7.8h-0.6c-0.5,0-1,0.4-1,0.9V67h0.7
				c2.3,0,3.1-1.7,3.1-3.9v-1.2l0.2-0.2h2.1l0.2,0.2v12.9l-0.2,0.2h-2.1l-0.2-0.2v-1.2c0-2.2-0.7-4-3.1-4h-0.7v11.9
				c0,0.5,0.3,0.9,1,0.9h1.7v2.5h-11l-0.2-0.2v-2l0.2-0.2h0.7c0.5,0,1-0.4,1-0.9V54.6c0-0.6-0.4-0.9-1-0.9h-0.7l-0.2-0.2v-2l0.2-0.2
				H152.6 M153,50.3h-0.4h-19.1H133l-0.3,0.3l-0.2,0.2l-0.3,0.3v0.4v2v0.4l0.3,0.3l0.2,0.2l0.3,0.3h0.4h0.7l0,26.5h-0.7H133
				l-0.3,0.3l-0.2,0.2l-0.3,0.3v0.4v2v0.4l0.3,0.3l0.2,0.2l0.3,0.3h0.4h11h1v-1v-2.5v-1h-1h-1.7V70.5c0.7,0.1,1.7,0.4,1.7,3v1.2v0.4
				l0.3,0.3l0.2,0.2l0.3,0.3h0.4h2.1h0.4l0.3-0.3l0.2-0.2l0.3-0.3v-0.4V62.7l0,0l0.2,0.2l0.3,0.3h0.4h2.6h0.4l0.3-0.3l0.2-0.2
				l0.3-0.3V62V51.5v-0.4l-0.3-0.3l-0.2-0.2L153,50.3L153,50.3z M142.7,54.8l0.6,0c3.7,0,5.4,0,5.5,6.4l0,0l-0.2-0.2l-0.3-0.3h-0.4
				h-2.1h-0.4l-0.3,0.3l-0.2,0.2l-0.3,0.3v0.4v1.2c0,2.3-0.8,2.8-1.7,2.9V54.8L142.7,54.8z"/>
		</g>
		<g>
			<path class="st0" d="M162.8,51.3l0.2,0.2v29.8c0,0.7,0.4,1,1.1,1h0.9l0.2,0.2v2l-0.2,0.2h-10.1l-0.2-0.2v-2l0.2-0.2h0.9
				c0.7,0,1.1-0.3,1.1-1V54.8c0-0.6-0.4-1.1-1.1-1.1h-0.9l-0.2-0.2v-2l0.2-0.2H162.8 M163.2,50.3h-0.4h-7.9h-0.4l-0.3,0.3l-0.2,0.2
				l-0.3,0.3v0.4v2v0.4l0.3,0.3l0.2,0.2l0.3,0.3h0.4h0.9c0.1,0,0.1,0,0.1,0c0,0,0,0,0,0v26.5c0,0-0.1,0-0.1,0h-0.9h-0.4l-0.3,0.3
				l-0.2,0.2l-0.3,0.3v0.4v2v0.4l0.3,0.3l0.2,0.2l0.3,0.3h0.4H165h0.4l0.3-0.3l0.2-0.2l0.3-0.3v-0.4v-2v-0.4l-0.3-0.3l-0.2-0.2
				l-0.3-0.3H165h-0.9c0,0-0.1,0-0.1,0V51.5v-0.4l-0.3-0.3l-0.2-0.2L163.2,50.3L163.2,50.3z"/>
		</g>
		<g>
			<path class="st0" d="M187.9,60.6l0.2,0.2v2l-0.2,0.2h-0.7c-0.7,0-1,0.3-1.2,1l-7.8,23.4c-1.1,3.3-3.5,7.4-7.7,7.4
				c-3.1,0-4.4-2-4.4-4c0-1.8,1.2-3.5,3.4-3.5c1.8,0,3.3,1.3,3.3,3.1c0,0.2,0,0.4,0,0.7c0.8-0.7,1.4-2.1,1.8-3.3l0.6-1.7L167.9,64
				c-0.2-0.6-0.5-1-1.4-1H166l-0.2-0.2v-2l0.2-0.2h10.2l0.2,0.2v2l-0.2,0.2h-0.9c-0.5,0-1,0.2-1,0.8c0,0.1,0,0.5,0.1,0.6l3.9,13.5
				l4.3-13.6c0-0.1,0.1-0.5,0.1-0.6c0-0.6-0.5-0.8-0.9-0.8h-1.5l-0.2-0.2v-2l0.2-0.2H187.9 M188.3,59.6h-0.4h-7.7h-0.4l-0.3,0.3
				l-0.2,0.2l-0.3,0.3v0.4v2v0.4l0.3,0.3l0.2,0.2l0.3,0.3h0.4h1.4c0,0,0,0,0,0l-3.3,10.5l-3-10.3c0,0,0-0.1,0-0.2h0.8h0.4l0.3-0.3
				l0.2-0.2l0.3-0.3v-0.4v-2v-0.4l-0.3-0.3l-0.2-0.2l-0.3-0.3h-0.4H166h-0.4l-0.3,0.3l-0.2,0.2l-0.3,0.3v0.4v2v0.4l0.3,0.3l0.2,0.2
				l0.3,0.3h0.4h0.5c0.4,0,0.4,0,0.5,0.3l7.1,21.8l-0.5,1.4c-0.1,0.3-0.2,0.6-0.4,0.9c-0.7-1.3-2.1-2.1-3.7-2.1
				c-2.9,0-4.4,2.3-4.4,4.5c0,2.4,1.7,5,5.4,5c5.3,0,7.8-5.6,8.6-8.1l7.8-23.4c0.1-0.2,0.2-0.3,0.2-0.3c0,0,0,0,0,0c0,0,0,0,0.1,0
				h0.7h0.4l0.3-0.3l0.2-0.2l0.3-0.3v-0.4v-2v-0.4l-0.3-0.3l-0.2-0.2L188.3,59.6L188.3,59.6z"/>
		</g>
		<g>
			<path class="st0" d="M219.5,53.3v7.2h2.8l0.2,0.2v2l-0.2,0.2h-2.8v16.1c0,1.2,0.6,1.9,2,1.9c0,0,0.9,0,1.5-0.2l0.1,0.5
				c-0.6,3-3.3,3.7-4.7,3.7c-3.7,0-5-2.2-5-5.3V63h-2l-0.2-0.2v-2l0.2-0.2h2v-7.2H219.5 M220.5,52.3h-1h-6.2h-1v1v6.2h-1h-0.4
				l-0.3,0.3l-0.2,0.2l-0.3,0.3v0.4v2v0.4l0.3,0.3l0.2,0.2l0.3,0.3h0.4h1v15.7c0,4.1,2.1,6.3,6,6.3c1.8,0,5-1,5.7-4.5l0-0.2l0-0.2
				l-0.1-0.5l-0.2-1.1l-1.1,0.4c-0.3,0.1-0.9,0.1-1.2,0.1c-0.8,0-1-0.3-1-0.9V64h1.8h0.4l0.3-0.3l0.2-0.2l0.3-0.3v-0.4v-2v-0.4
				l-0.3-0.3l-0.2-0.2l-0.3-0.3h-0.4h-1.8v-6.2V52.3L220.5,52.3z"/>
		</g>
		<g>
			<path class="st0" d="M239.1,60.1c3.3,0,6.7,1.6,6.7,6.8v14.4c0,0.7,0.4,1,1.1,1h0.9l0.2,0.2v2l-0.2,0.2h-10.1l-0.2-0.2v-2
				l0.2-0.2h0.9c0.7,0,1.1-0.3,1.1-1v-14c0-1.9-0.7-3.3-2.7-3.3c-1,0-3.1,0.5-3.1,3.6v13.8c0,0.7,0.4,1,1.1,1h0.9l0.2,0.2v2
				l-0.2,0.2h-10.1l-0.2-0.2v-2l0.2-0.2h0.9c0.7,0,1.1-0.3,1.1-1V64c0-0.7-0.4-1-1.1-1h-0.9l-0.2-0.2v-2l0.2-0.2h7.9l0.2,0.2v1.8
				C234.8,61.1,237,60.1,239.1,60.1 M239.1,59.1c-1.5,0-3.1,0.5-4.4,1.3l-0.2-0.2l-0.2-0.2l-0.3-0.3h-0.4h-7.9h-0.4l-0.3,0.3
				l-0.2,0.2l-0.3,0.3v0.4v2v0.4l0.3,0.3l0.2,0.2l0.3,0.3h0.4h0.9c0,0,0.1,0,0.1,0v17.2c0,0-0.1,0-0.1,0h-0.9h-0.4l-0.3,0.3
				l-0.2,0.2l-0.3,0.3v0.4v2v0.4l0.3,0.3l0.2,0.2l0.3,0.3h0.4h10.1h0.4l0.3-0.3l0.2-0.2l0.2,0.2l0.3,0.3h0.4h10.1h0.4l0.3-0.3
				l0.2-0.2l0.3-0.3v-0.4v-2v-0.4l-0.3-0.3l-0.2-0.2l-0.3-0.3h-0.4h-0.9c0,0-0.1,0-0.1,0V66.9C246.8,59.6,240.9,59.1,239.1,59.1
				L239.1,59.1z M234.8,81.3V67.5c0-2.3,1.5-2.6,2.1-2.6c0.6,0,1.7,0,1.7,2.3v14c0,0-0.1,0-0.1,0h-0.9h-0.4l-0.3,0.3l-0.2,0.2
				l-0.2-0.2l-0.3-0.3h-0.4L234.8,81.3C234.9,81.3,234.8,81.3,234.8,81.3L234.8,81.3L234.8,81.3z"/>
		</g>
		<g>
			<path class="st0" d="M261,60.6l0.2,0.2v2L261,63h-0.9c-0.7,0-1.1,0.4-1.1,1.1v17.2c0,0.7,0.4,1,1.1,1h0.9l0.2,0.2v2l-0.2,0.2
				h-10.1l-0.2-0.2v-2l0.2-0.2h0.9c0.7,0,1.1-0.3,1.1-1V64.1c0-0.6-0.4-1.1-1.1-1.1h-0.9l-0.2-0.2v-2l0.2-0.2H261 M261.4,59.6H261
				h-10.1h-0.4l-0.3,0.3l-0.2,0.2l-0.3,0.3v0.4v2v0.4l0.3,0.3l0.2,0.2l0.3,0.3h0.4h0.9c0.1,0,0.1,0,0.1,0c0,0,0,0,0,0v17.2
				c0,0-0.1,0-0.1,0h-0.9h-0.4l-0.3,0.3l-0.2,0.2l-0.3,0.3v0.4v2v0.4l0.3,0.3l0.2,0.2l0.3,0.3h0.4H261h0.4l0.3-0.3l0.2-0.2l0.3-0.3
				v-0.4v-2v-0.4l-0.3-0.3l-0.2-0.2l-0.3-0.3H261h-0.9c0,0-0.1,0-0.1,0V64.1c0,0,0,0,0,0c0,0,0.1,0,0.1,0h0.9h0.4l0.3-0.3l0.2-0.2
				l0.3-0.3v-0.4v-2v-0.4l-0.3-0.3l-0.2-0.2L261.4,59.6L261.4,59.6z"/>
		</g>
		<g>
			<path class="st0" d="M255.9,49.8c2,0,3.6,1.5,3.6,3.5c0,2-1.6,3.5-3.6,3.5c-1.9,0-3.5-1.6-3.5-3.5
				C252.4,51.4,254,49.8,255.9,49.8 M255.9,48.8c-2.5,0-4.5,2-4.5,4.5c0,2.5,2,4.5,4.5,4.5c2.5,0,4.6-2,4.6-4.5
				C260.5,50.8,258.5,48.8,255.9,48.8L255.9,48.8z"/>
		</g>
		<g>
			<path class="st0" d="M277.9,60.1c3.3,0,6.7,1.6,6.7,6.8v14.4c0,0.7,0.4,1,1.1,1h0.9l0.2,0.2v2l-0.2,0.2h-10.1l-0.2-0.2v-2
				l0.2-0.2h0.9c0.7,0,1.1-0.3,1.1-1v-14c0-1.9-0.7-3.3-2.7-3.3c-1,0-3.1,0.5-3.1,3.6v13.8c0,0.7,0.4,1,1.1,1h0.9l0.2,0.2v2
				l-0.2,0.2h-10.1l-0.2-0.2v-2l0.2-0.2h0.9c0.7,0,1.1-0.3,1.1-1V64c0-0.7-0.4-1-1.1-1h-0.9l-0.2-0.2v-2l0.2-0.2h7.9l0.2,0.2v1.8
				C273.5,61.1,275.8,60.1,277.9,60.1 M277.9,59.1c-1.5,0-3.1,0.5-4.4,1.3l-0.2-0.2l-0.2-0.2l-0.3-0.3h-0.4h-7.9H264l-0.3,0.3
				l-0.2,0.2l-0.3,0.3v0.4v2v0.4l0.3,0.3l0.2,0.2L264,64h0.4h0.9c0,0,0.1,0,0.1,0v17.2c0,0-0.1,0-0.1,0h-0.9H264l-0.3,0.3l-0.2,0.2
				l-0.3,0.3v0.4v2v0.4l0.3,0.3l0.2,0.2l0.3,0.3h0.4h10.1h0.4l0.3-0.3l0.2-0.2l0.2,0.2l0.3,0.3h0.4h10.1h0.4l0.3-0.3l0.2-0.2
				l0.3-0.3v-0.4v-2v-0.4l-0.3-0.3l-0.2-0.2l-0.3-0.3h-0.4h-0.9c0,0-0.1,0-0.1,0V66.9C285.6,59.6,279.7,59.1,277.9,59.1L277.9,59.1z
				 M273.5,81.3V67.5c0-2.3,1.5-2.6,2.1-2.6c0.6,0,1.7,0,1.7,2.3v14c0,0-0.1,0-0.1,0h-0.9H276l-0.3,0.3l-0.2,0.2l-0.2-0.2l-0.3-0.3
				h-0.4L273.5,81.3C273.6,81.3,273.6,81.3,273.5,81.3L273.5,81.3L273.5,81.3z"/>
		</g>
		<g>
			<path class="st0" d="M320,60.1c4.4,0,8.7,2.7,8.7,8.8v4.1l-0.2,0.2H317v4.4c0,2.2,1.3,4.3,4,4.3c3.7,0,4.5-2.3,4.5-5.4v-0.3
				l0.2-0.2h2.4l0.2,0.2v0.6c0,5.5-3,8.4-8.6,8.4c-5.8,0-9-3.9-9-8.8v-7.6C310.8,62.9,315.6,60.1,320,60.1 M317,70.3h5.7v-4.6
				c0-1.7-1.1-2.6-2.9-2.6c-1.7,0-2.9,0.9-2.9,2.6V70.3 M320,59.1c-5.1,0-10.2,3.4-10.2,9.8v7.6c0,5.9,4,9.8,10,9.8
				c6.2,0,9.6-3.3,9.6-9.4v-0.6v-0.4l-0.3-0.3l-0.2-0.2l-0.3-0.3h-0.4h-2.4h-0.4l-0.3,0.3l-0.2,0.2l-0.3,0.3v0.4v0.3
				c0,3.2-0.9,4.4-3.5,4.4c-2.2,0-3-1.7-3-3.3v-3.4h10.4h0.4l0.3-0.3l0.2-0.2l0.3-0.3v-0.4v-4.1C329.7,62.1,324.8,59.1,320,59.1
				L320,59.1z M318,69.3v-3.6c0-1.3,1-1.6,1.9-1.6c1.2,0,1.9,0.5,1.9,1.6v3.6H318L318,69.3z"/>
		</g>
		<g>
			<path class="st0" d="M355.9,60.1c3.3,0,6.5,1.6,6.5,6.8v14.4c0,0.7,0.4,1,1.1,1h0.9l0.2,0.2v2l-0.2,0.2h-9.7l-0.2-0.2v-2l0.2-0.2
				h0.4c0.7,0,1.1-0.3,1.1-1v-14c0-1.9-0.6-3.3-2.4-3.3c-0.9,0-2.8,0.5-2.8,3.6v13.8c0,0.7,0.4,1,1.1,1h0.9l0.2,0.2v2l-0.2,0.2h-9.7
				l-0.2-0.2v-2l0.2-0.2h0.4c0.7,0,1.1-0.3,1.1-1v-14c0-1.9-0.6-3.3-2.4-3.3c-0.9,0-2.9,0.5-2.9,3.6v13.8c0,0.7,0.4,1,1.1,1h0.9
				l0.2,0.2v2l-0.2,0.2h-10.1l-0.2-0.2v-2l0.2-0.2h1.1c0.7,0,0.9-0.3,0.9-1V64c0-0.7-0.4-1-1.1-1h-0.9l-0.2-0.2v-2l0.2-0.2h7.9
				l0.2,0.2v1.7c1.1-1.4,3.1-2.4,5.2-2.4c2.2,0,4.4,0.8,5.4,2.9C351.4,61.1,353.8,60.1,355.9,60.1 M355.9,59.1
				c-2.1,0-4.3,0.9-5.8,2.3c-1.2-1.5-3.1-2.3-5.6-2.3c-1.5,0-3,0.4-4.2,1.2l-0.2-0.2l-0.2-0.2l-0.3-0.3h-0.4h-7.9h-0.4l-0.3,0.3
				l-0.2,0.2l-0.3,0.3v0.4v2v0.4l0.3,0.3l0.2,0.2l0.3,0.3h0.4h0.9c0,0,0.1,0,0.1,0v17.2c0,0,0,0,0,0h-1h-0.4l-0.3,0.3l-0.2,0.2
				l-0.3,0.3v0.4v2v0.4l0.3,0.3l0.2,0.2l0.3,0.3h0.4h10.1h0.4l0.3-0.3l0.2-0.2l0.2,0.2l0.3,0.3h0.4h9.7h0.4l0.3-0.3l0.2-0.2l0.2,0.2
				l0.3,0.3h0.4h9.7h0.4l0.3-0.3l0.2-0.2l0.3-0.3v-0.4v-2v-0.4l-0.3-0.3l-0.2-0.2l-0.3-0.3h-0.4h-0.9c0,0-0.1,0-0.1,0V66.9
				C363.4,61.9,360.7,59.1,355.9,59.1L355.9,59.1z M351.9,81.3V67.5c0-2.4,1.4-2.6,1.8-2.6c0.5,0,1.4,0,1.4,2.3v14c0,0-0.1,0-0.1,0
				h-0.4h-0.4l-0.3,0.3l-0.2,0.2l-0.2-0.2l-0.3-0.3h-0.4L351.9,81.3C352,81.3,351.9,81.3,351.9,81.3L351.9,81.3L351.9,81.3z
				 M340.4,81.3V67.5c0-2.4,1.4-2.6,1.9-2.6c0.5,0,1.4,0,1.4,2.3v14c0,0-0.1,0-0.1,0h-0.4h-0.4l-0.3,0.3l-0.2,0.2l-0.2-0.2l-0.3-0.3
				h-0.4L340.4,81.3C340.4,81.3,340.4,81.3,340.4,81.3L340.4,81.3L340.4,81.3z"/>
		</g>
		<g>
			<path class="st0" d="M388.1,60.6l0.2,0.2v2l-0.2,0.2h-0.9c-0.7,0-1.1,0.3-1.1,1v17.2c0,0.7,0.4,1,1.1,1h0.9l0.2,0.2v2l-0.2,0.2
				h-7.9l-0.2-0.2v-1.8c-1,1.5-3.3,2.5-5.3,2.5c-3.6,0-6.5-1.6-6.5-6.8V64c0-0.7-0.4-1-1.1-1h-0.9l-0.2-0.2v-2l0.2-0.2h7.9l0.2,0.2
				v17.3c0,1.9,0.6,3.3,2.6,3.3c1,0,3-0.5,3-3.6V64c0-0.7-0.4-1-1.1-1h-0.9l-0.2-0.2v-2l0.2-0.2H388.1 M388.5,59.6h-0.4h-10.1h-0.4
				l-0.3,0.3l-0.2,0.2l-0.3,0.3v0.4v2v0.4l0.3,0.3l0.2,0.2l0.3,0.3h0.4h0.9c0,0,0.1,0,0.1,0v13.8c0,2.3-1.4,2.6-2,2.6
				c-0.8,0-1.6-0.2-1.6-2.3V60.8v-0.4l-0.3-0.3l-0.2-0.2l-0.3-0.3h-0.4h-7.9h-0.4l-0.3,0.3l-0.2,0.2l-0.3,0.3v0.4v2v0.4l0.3,0.3
				l0.2,0.2l0.3,0.3h0.4h0.9c0,0,0.1,0,0.1,0v14.4c0,5.1,2.6,7.8,7.5,7.8c1.5,0,3.1-0.5,4.4-1.3l0.2,0.2l0.2,0.2l0.3,0.3h0.4h7.9
				h0.4l0.3-0.3l0.2-0.2l0.3-0.3v-0.4v-2v-0.4l-0.3-0.3l-0.2-0.2l-0.3-0.3h-0.4h-0.9c0,0-0.1,0-0.1,0V64c0,0,0.1,0,0.1,0h0.9h0.4
				l0.3-0.3l0.2-0.2l0.3-0.3v-0.4v-2v-0.4l-0.3-0.3l-0.2-0.2L388.5,59.6L388.5,59.6z"/>
		</g>
		<g>
			<path class="st0" d="M399,60.1c1.5,0,3.2,0.3,4.9,1.9l0.7-1.5l0.3-0.2h1.8l0.2,0.2v7.9l-0.2,0.2h-2.2l-0.2-0.2
				c-1.1-4.8-3.1-5.6-4.7-5.6c-1.6,0-3,0.7-3,2.8c0,4.4,11.7,4.3,11.7,12c0,5.1-3.4,7.7-8.1,7.7c-2.8,0-4.3-0.9-5.8-2.4l-0.5,1.7
				l-0.3,0.2h-1.8l-0.2-0.2v-8.3l0.2-0.2h2.2l0.2,0.2c0.4,3.4,1.8,6.4,5.3,6.4c1.8,0,3.1-1,3.1-3c0-5-11.1-3.9-11.1-12.2
				C391.4,61.8,395.9,60.1,399,60.1 M399,59.1c-5.9,0-8.6,4.2-8.6,8.3c0,5.3,4,7.3,7.2,8.8c2.4,1.2,3.9,2,3.9,3.5c0,1.6-1.1,2-2.1,2
				c-0.9,0-3.6,0-4.3-5.5l-0.1-0.4l-0.3-0.3l-0.2-0.2l-0.3-0.2h-0.4h-2.2h-0.4l-0.3,0.3l-0.2,0.2l-0.3,0.3v0.4v8.3v0.4l0.3,0.3
				l0.2,0.2l0.3,0.3h0.4h1.8h0.3l0.3-0.2l0.3-0.2l0.3-0.2l0.1-0.3l0.1-0.2c1.3,1,2.9,1.6,5.3,1.6c5.5,0,9.1-3.4,9.1-8.7
				c0-5-4.2-7-7.6-8.7c-2.2-1.1-4.1-2-4.1-3.3c0-0.5,0-1.8,2-1.8c0.7,0,2.6,0,3.7,4.9l0.1,0.3l0.3,0.2l0.2,0.2l0.3,0.2h0.4h2.2h0.4
				l0.3-0.3l0.2-0.2l0.3-0.3v-0.4v-7.9V60l-0.3-0.3l-0.2-0.2l-0.3-0.3h-0.4h-1.8h-0.3l-0.3,0.2l-0.3,0.2l-0.2,0.2l-0.1,0.3l-0.1,0.3
				C401.8,59.2,400.1,59.1,399,59.1L399,59.1z"/>
		</g>
		<g>
			<path class="st0" d="M419.7,60.1c4.4,0,8.7,2.7,8.7,8.8v4.1l-0.2,0.2h-11.4v4.4c0,2.2,1.3,4.3,4,4.3c3.7,0,4.5-2.3,4.5-5.4v-0.3
				l0.2-0.2h2.4l0.2,0.2v0.6c0,5.5-3,8.4-8.6,8.4c-5.8,0-9-3.9-9-8.8v-7.6C410.6,62.9,415.3,60.1,419.7,60.1 M416.8,70.3h5.7v-4.6
				c0-1.7-1.1-2.6-2.9-2.6c-1.7,0-2.9,0.9-2.9,2.6V70.3 M419.7,59.1c-5.1,0-10.2,3.4-10.2,9.8v7.6c0,5.9,4,9.8,10,9.8
				c6.2,0,9.6-3.3,9.6-9.4v-0.6v-0.4l-0.3-0.3l-0.2-0.2l-0.3-0.3h-0.4h-2.4h-0.4l-0.3,0.3l-0.2,0.2l-0.3,0.3v0.4v0.3
				c0,3.2-0.9,4.4-3.5,4.4c-2.2,0-3-1.7-3-3.3v-3.4h10.4h0.4l0.3-0.3l0.2-0.2l0.3-0.3v-0.4v-4.1C429.4,62.1,424.5,59.1,419.7,59.1
				L419.7,59.1z M417.8,69.3v-3.6c0-1.3,1-1.6,1.9-1.6c1.2,0,1.9,0.5,1.9,1.6v3.6H417.8L417.8,69.3z"/>
		</g>
		<g>
			<path class="st0" d="M441.2,60.1c4.4,0,8.7,2.7,8.7,8.8v4.1l-0.2,0.2h-11.4v4.4c0,2.2,1.3,4.3,4,4.3c3.7,0,4.5-2.3,4.5-5.4v-0.3
				l0.2-0.2h2.4l0.2,0.2v0.6c0,5.5-3,8.4-8.6,8.4c-5.8,0-9-3.9-9-8.8v-7.6C432,62.9,436.8,60.1,441.2,60.1 M438.2,70.3h5.7v-4.6
				c0-1.7-1.1-2.6-2.9-2.6c-1.7,0-2.9,0.9-2.9,2.6V70.3 M441.2,59.1c-5.1,0-10.2,3.4-10.2,9.8v7.6c0,5.9,4,9.8,10,9.8
				c6.2,0,9.6-3.3,9.6-9.4v-0.6v-0.4l-0.3-0.3l-0.2-0.2l-0.3-0.3h-0.4H447h-0.4l-0.3,0.3l-0.2,0.2l-0.3,0.3v0.4v0.3
				c0,3.2-0.9,4.4-3.5,4.4c-2.2,0-3-1.7-3-3.3v-3.4h10.4h0.4l0.3-0.3l0.2-0.2l0.3-0.3v-0.4v-4.1C450.8,62.1,446,59.1,441.2,59.1
				L441.2,59.1z M439.2,69.3v-3.6c0-1.3,1-1.6,1.9-1.6c1.2,0,1.9,0.5,1.9,1.6v3.6H439.2L439.2,69.3z"/>
		</g>
		<g>
			<path class="st0" d="M460.3,53.3v7.2h2.8l0.2,0.2v2l-0.2,0.2h-2.8v16.1c0,1.2,0.6,1.9,2,1.9c0,0,0.9,0,1.5-0.2l0.1,0.5
				c-0.6,3-3.3,3.7-4.7,3.7c-3.7,0-5-2.2-5-5.3V63h-2l-0.2-0.2v-2l0.2-0.2h2v-7.2h3.7H460.3 M461.3,52.3h-1h-2.5h-3.7h-1v1v6.2h-1
				h-0.4l-0.3,0.3l-0.2,0.2l-0.3,0.3v0.4v2v0.4l0.3,0.3l0.2,0.2l0.3,0.3h0.4h1v15.7c0,4.1,2.1,6.3,6,6.3c1.8,0,5-1,5.7-4.5l0-0.2
				l0-0.2l-0.1-0.5l-0.2-1.1l-1.1,0.4c-0.3,0.1-0.9,0.1-1.2,0.1c-0.8,0-1-0.3-1-0.9V64h1.8h0.4l0.3-0.3l0.2-0.2l0.3-0.3v-0.4v-2
				v-0.4l-0.3-0.3l-0.2-0.2l-0.3-0.3h-0.4h-1.8v-6.2V52.3L461.3,52.3z"/>
		</g>
		<g>
			<path class="st0" d="M197.5,60.1c0.6,0,1.3,0.1,2,0.2c0.7,0.2,1.4,0.4,2,0.8v-0.1v-0.1l0.1-0.1l0.1-0.1h3.9h3.9l0.1,0.1l0.1,0.1
				v1v1l-0.1,0.1l-0.1,0.1h-0.3h-0.3c-0.4,0-0.6,0.1-0.8,0.3c-0.2,0.2-0.3,0.4-0.3,0.8v5.2h0v0.4c0,0.5,0,1-0.1,1.5
				c-0.1,0.5-0.2,0.9-0.3,1.3c0,0.1,0,0.1-0.1,0.2c0,0.1,0,0.1-0.1,0.2h0c0,0,0,0,0,0c0,0,0,0,0,0c0,0,0,0.1,0,0.1c0,0,0,0.1,0,0.1
				c0,0,0,0.1,0,0.1c-1.4,3.5-5,5.2-8.6,5.2c-1,0-1.9-0.1-2.8-0.4c-1.1,0.2-1.8,0.9-1.8,1.7c0,1.2,1,1.5,1.5,1.5l7.3,0.3
				c1.7,0,3.2,0.4,4.2,1c1.6,1,2.7,2.6,2.7,5.2c0,5.9-6.2,7.6-11,7.6c-2.8,0-5.7-0.3-7.7-1.5c-1.3-0.9-2.2-2.2-2.2-4
				c0-2,1.5-3.8,4-4.3c-2.2-0.6-2.9-2.6-2.9-3.6c0-2.3,1.4-3.8,3.4-4.8c-1.3-0.7-2.5-1.9-3.2-3.4c0,0,0,0,0,0c0,0,0,0,0,0
				c0,0,0-0.1,0-0.1c0,0,0-0.1-0.1-0.1c0-0.1-0.1-0.2-0.1-0.2c0,0,0-0.1,0-0.1c0,0,0-0.1,0-0.1c0-0.1-0.1-0.1-0.1-0.2s0-0.1-0.1-0.2
				c-0.1-0.4-0.2-0.9-0.3-1.3c-0.1-0.5-0.1-1-0.1-1.5v-0.4v0v-0.8c0-3.1,0.9-5.2,2.4-6.5C193.2,60.7,195.2,60.1,197.5,60.1
				 M198.6,75.5c0.2,0,0.3,0,0.5,0c0,0,0.1,0,0.1,0c0.1,0,0.2,0,0.3-0.1c0.2,0,0.3-0.1,0.4-0.2c0.1,0,0.1,0,0.2-0.1
				c0.1-0.1,0.2-0.1,0.3-0.2c0.1,0,0.1-0.1,0.2-0.1c0.6-0.4,0.9-1.1,0.9-1.9v-0.1v-3.6v-3.7c0-0.8-0.4-1.5-0.9-1.9
				c-0.6-0.4-1.3-0.6-2.1-0.6c-0.7,0-1.4,0.2-1.9,0.6c-0.5,0.4-0.9,1-0.9,1.9v3.7v3.6V73c0,0.8,0.4,1.5,0.9,1.9
				c0.3,0.2,0.7,0.4,1,0.5c0,0,0,0,0.1,0c0.1,0,0.2,0,0.3,0.1c0,0,0.1,0,0.1,0C198.3,75.5,198.4,75.5,198.6,75.5 M198,92.4h1.8
				c2.6,0,5-0.7,5-3c0-2.5-2.1-2.7-4.6-2.7c-0.9,0-3,0-3.7,0c-2,0-3.5,0.7-3.5,2.8C192.9,91.9,196,92.4,198,92.4 M197.5,59.1
				c-2.6,0-4.9,0.8-6.4,2.2c-1.8,1.6-2.7,4.1-2.7,7.2v0.8v0.4c0,0.6,0,1.1,0.1,1.6c0.1,0.5,0.2,1,0.3,1.5l0,0.2l0,0.1
				c0,0.1,0.1,0.2,0.1,0.3c0,0,0,0.1,0.1,0.1l0,0.1l0,0.1c0,0.1,0.1,0.2,0.1,0.3l0.1,0.1l0,0.1l0,0l0,0.1l0,0
				c0.6,1.1,1.3,2.1,2.2,2.9c-1.7,1.2-2.6,2.9-2.6,4.9c0,1,0.4,2.4,1.6,3.5c-1.6,1-2.6,2.6-2.6,4.5c0,2,0.9,3.7,2.6,4.9
				c1.8,1.2,4.4,1.7,8.2,1.7c5.8,0,12-2.2,12-8.6c0-2.8-1.1-4.8-3.2-6.1c-1.1-0.7-2.7-1.1-4.7-1.1l-7.3-0.3c-0.6,0-0.6-0.4-0.6-0.5
				c0-0.4,0.4-0.6,0.7-0.7c0.8,0.2,1.7,0.3,2.8,0.3c4.4,0,8-2.2,9.5-5.8l0-0.1l0-0.1l0-0.1c0,0,0-0.1,0.1-0.2l0.5-1.3l-0.1,0
				c0-0.2,0.1-0.4,0.1-0.6c0.1-0.5,0.1-1.1,0.1-1.6v-0.4l0-5.2c0,0,0,0,0,0c0,0,0.1,0,0.1,0h0.3h0.3h0.4l0.3-0.3l0.1-0.1l0.1-0.1
				l0.3-0.3v-0.4v-1v-1v-0.4l-0.3-0.3l-0.1-0.1l-0.1-0.1l-0.3-0.3h-0.4h-3.9h-3.9h-0.4l-0.2,0.2c-0.4-0.2-0.9-0.3-1.4-0.5
				C199,59.2,198.2,59.1,197.5,59.1L197.5,59.1z M198.6,74.5c-0.1,0-0.2,0-0.3,0l-0.1,0c-0.1,0-0.1,0-0.2,0l0,0
				c-0.3-0.1-0.5-0.2-0.7-0.3c-0.4-0.3-0.5-0.6-0.5-1.1v-0.1v-3.6v-3.7c0-0.5,0.2-0.8,0.5-1.1c0.3-0.3,0.8-0.4,1.3-0.4
				c0.6,0,1.1,0.2,1.5,0.4c0.3,0.3,0.5,0.6,0.5,1.1v3.7v3.6V73c0,0.5-0.2,0.8-0.5,1.1c-0.1,0-0.1,0.1-0.1,0.1
				c-0.1,0.1-0.1,0.1-0.2,0.1c0,0-0.1,0-0.1,0c-0.1,0-0.2,0.1-0.3,0.1c-0.1,0-0.2,0.1-0.3,0.1l-0.1,0
				C198.8,74.5,198.7,74.5,198.6,74.5L198.6,74.5z M198,91.4c-0.7,0-4.1-0.1-4.1-1.9c0-0.6,0-1.8,2.5-1.8c0.4,0,1,0,1.7,0
				c0.8,0,1.6,0,2,0c3,0,3.6,0.4,3.6,1.7c0,1.7-2.5,2-4,2H198L198,91.4z"/>
		</g>
		<g>
			<path class="st0" d="M296.9,60.1c0.6,0,1.3,0.1,2,0.2c0.7,0.2,1.4,0.4,2,0.8v-0.1v-0.1l0.1-0.1l0.1-0.1h3.9h3.9l0.1,0.1l0.1,0.1
				v1v1l-0.1,0.1l-0.1,0.1h-0.3h-0.3c-0.4,0-0.6,0.1-0.8,0.3c-0.2,0.2-0.3,0.4-0.3,0.8v5.2h0v0.4c0,0.5,0,1-0.1,1.5
				c-0.1,0.5-0.2,0.9-0.3,1.3c0,0.1,0,0.1-0.1,0.2c0,0.1,0,0.1-0.1,0.2h0c0,0,0,0,0,0c0,0,0,0,0,0c0,0,0,0.1,0,0.1c0,0,0,0.1,0,0.1
				c0,0,0,0.1,0,0.1c-1.4,3.5-5,5.2-8.6,5.2c-1,0-1.9-0.1-2.8-0.4c-1.1,0.2-1.8,0.9-1.8,1.7c0,1.2,1,1.5,1.5,1.5l7.3,0.3
				c1.7,0,3.2,0.4,4.2,1c1.6,1,2.7,2.6,2.7,5.2c0,5.9-6.2,7.6-11,7.6c-2.8,0-5.7-0.3-7.7-1.5c-1.3-0.9-2.2-2.2-2.2-4
				c0-2,1.5-3.8,4-4.3c-2.2-0.6-2.9-2.6-2.9-3.6c0-2.3,1.4-3.8,3.4-4.8c-1.3-0.7-2.5-1.9-3.2-3.4c0,0,0,0,0,0c0,0,0,0,0,0
				c0,0,0-0.1,0-0.1c0,0,0-0.1-0.1-0.1c0-0.1-0.1-0.2-0.1-0.2c0,0,0-0.1,0-0.1c0,0,0-0.1,0-0.1c0-0.1-0.1-0.1-0.1-0.2
				c0-0.1,0-0.1-0.1-0.2c-0.1-0.4-0.2-0.9-0.3-1.3c-0.1-0.5-0.1-1-0.1-1.5v-0.4v0v-0.8c0-3.1,0.9-5.2,2.4-6.5
				C292.7,60.7,294.7,60.1,296.9,60.1 M298,75.5c0.2,0,0.3,0,0.5,0c0,0,0.1,0,0.1,0c0.1,0,0.2,0,0.3-0.1c0.2,0,0.3-0.1,0.4-0.2
				c0.1,0,0.1,0,0.2-0.1c0.1-0.1,0.2-0.1,0.3-0.2c0.1,0,0.1-0.1,0.2-0.1c0.6-0.4,0.9-1.1,0.9-1.9v-0.1v-3.6v-3.7
				c0-0.8-0.4-1.5-0.9-1.9c-0.6-0.4-1.3-0.6-2.1-0.6c-0.7,0-1.4,0.2-1.9,0.6c-0.5,0.4-0.9,1-0.9,1.9v3.7v3.6V73
				c0,0.8,0.4,1.5,0.9,1.9c0.3,0.2,0.7,0.4,1,0.5c0,0,0,0,0.1,0c0.1,0,0.2,0,0.3,0.1c0,0,0.1,0,0.1,0
				C297.7,75.5,297.9,75.5,298,75.5 M297.5,92.4h1.8c2.6,0,5-0.7,5-3c0-2.5-2.1-2.7-4.6-2.7c-0.9,0-3,0-3.7,0c-2,0-3.5,0.7-3.5,2.8
				C292.4,91.9,295.4,92.4,297.5,92.4 M296.9,59.1c-2.6,0-4.9,0.8-6.4,2.2c-1.8,1.6-2.7,4.1-2.7,7.2v0.8v0.4c0,0.6,0,1.1,0.1,1.6
				c0.1,0.5,0.2,1,0.3,1.5l0,0.2l0,0.1c0,0.1,0.1,0.2,0.1,0.3c0,0,0,0.1,0.1,0.1l0,0.1l0,0.1c0,0.1,0.1,0.2,0.1,0.3l0.1,0.1l0,0.1
				l0,0l0,0.1l0,0c0.6,1.1,1.3,2.1,2.2,2.9c-1.7,1.2-2.6,2.9-2.6,4.9c0,1,0.4,2.4,1.6,3.5c-1.6,1-2.6,2.6-2.6,4.5
				c0,2,0.9,3.7,2.6,4.9c1.8,1.2,4.4,1.7,8.2,1.7c5.8,0,12-2.2,12-8.6c0-2.8-1.1-4.8-3.2-6.1c-1.1-0.7-2.7-1.1-4.7-1.1l-7.3-0.3
				c-0.6,0-0.6-0.4-0.6-0.5c0-0.4,0.4-0.6,0.7-0.7c0.8,0.2,1.7,0.3,2.8,0.3c4.4,0,8-2.2,9.5-5.8l0-0.1l0-0.1l0-0.1
				c0-0.1,0-0.1,0.1-0.2l0,0l0,0l0.5-1.3H308c0-0.2,0.1-0.4,0.1-0.6c0.1-0.5,0.1-1.1,0.1-1.6v-0.4l0-5.2c0,0,0,0,0,0
				c0,0,0.1,0,0.1,0h0.3h0.3h0.4l0.3-0.3l0.1-0.1l0.1-0.1l0.3-0.3v-0.4v-1v-1v-0.4l-0.3-0.3l-0.1-0.1l-0.1-0.1l-0.3-0.3H309h-3.9
				h-3.9h-0.4l-0.2,0.2c-0.4-0.2-0.9-0.3-1.4-0.5C298.5,59.2,297.7,59.1,296.9,59.1L296.9,59.1z M298,74.5c-0.1,0-0.2,0-0.3,0
				l-0.1,0c-0.1,0-0.1,0-0.2,0l0,0c-0.3-0.1-0.5-0.2-0.7-0.3c-0.4-0.3-0.5-0.6-0.5-1.1v-0.1v-3.6v-3.7c0-0.5,0.2-0.8,0.5-1.1
				c0.3-0.3,0.8-0.4,1.3-0.4c0.6,0,1.1,0.2,1.5,0.4c0.3,0.3,0.5,0.6,0.5,1.1v3.7v3.6V73c0,0.5-0.2,0.8-0.5,1.1
				c-0.1,0-0.1,0.1-0.1,0.1c-0.1,0.1-0.1,0.1-0.2,0.1c0,0-0.1,0-0.1,0c-0.1,0-0.2,0.1-0.3,0.1c-0.1,0-0.2,0.1-0.3,0.1l-0.1,0
				C298.2,74.5,298.1,74.5,298,74.5L298,74.5z M297.5,91.4c-0.7,0-4.1-0.1-4.1-1.9c0-0.6,0-1.8,2.5-1.8c0.4,0,1,0,1.7,0
				c0.8,0,1.6,0,2,0c3,0,3.6,0.4,3.6,1.7c0,1.7-2.5,2-4,2H297.5L297.5,91.4z"/>
		</g>
	</g>
	<g>
		<g>
			<g>
				<path class="st1" d="M38.7,48.5L38.3,48l0.2-0.5c-8,1.3-12.4-1.8-19.5-7.7l-0.4-0.3l-0.7,0.8l0.4,0.3
					C25.5,46.6,30.2,50,38.7,48.5z"/>
				<path class="st1" d="M67.1,42.1c9.1,0,17.5,3.9,22.9,10.3h1.4C85.7,45.2,76.6,40.9,66.7,41L67.1,42.1z"/>
				<path class="st1" d="M31.4,94.6c-1.1,0.1-2.2,0.2-3.3,0.4C17.9,96.6,9.4,103.8,6,113.6l-0.2,0.5l1,0.4l0.2-0.5
					c3.3-9.4,11.5-16.3,21.3-17.9c1.1-0.2,2.1-0.3,3.2-0.3c3.8-0.3,7.6,0.2,11.3,0.9l1.3-0.5l0.3-0.3C40.2,94.9,35.8,94.2,31.4,94.6
					z"/>
				<path class="st1" d="M96.4,62.6l-1.1,0c0.2,0.8,0.4,1.5,0.5,2.3c1.2,7.3-0.7,14.7-5.4,20.7c-4.7,6.1-11.6,10.2-19.5,11.5
					c-7.9,1.3-16.1,0.3-23.1-0.9c-0.9-0.2-1.8-0.3-2.8-0.5c-0.1,0-0.2,0-0.3,0L44.1,96l-0.6,0.6c0.5,0.1,0.9,0.2,1.4,0.2
					c0.9,0.2,1.8,0.3,2.8,0.5c7.1,1.2,15.4,2.2,23.4,0.9c8.1-1.4,15.3-5.6,20.2-11.9c4.9-6.3,6.9-14,5.6-21.6
					C96.8,64,96.6,63.3,96.4,62.6z"/>
			</g>
			<path class="st1" d="M33.4,108.2l-8-6.1l18.3-6.5l19.1-20.4l-25.2-27L51.8,2.6l23.6,59l9.1-9.8H93l6.6,11.3l-8.3,0L85.4,82
				l-0.3,0.1L44.4,96.5L33.4,108.2z M27.7,102.4l5.7,4.3l8.9-9.5L27.7,102.4z M38.9,47.9l25.5,27.3L46,94.8l38.6-13.6l6-19.1l7.3,0
				l-5.4-9.2h-7.3l-10,10.7L52,5.8L38.9,47.9z"/>
		</g>
		<g>
			<circle class="st1" cx="90.9" cy="57.5" r="1"/>
		</g>
		<g>
			<g>
				<path class="st1" d="M70.3,27.4l-0.7-1.7l-0.7-0.1l-0.2,1.6l-1-0.1l0.5-4.6l2.2,0.2c1,0.1,1.5,0.8,1.4,1.6
					c-0.1,0.8-0.6,1.2-1.2,1.3l0.9,1.9L70.3,27.4z M70.7,24.3c0-0.4-0.2-0.6-0.6-0.7l-1-0.1l-0.1,1.2l1,0.1
					C70.4,24.9,70.7,24.7,70.7,24.3z"/>
				<path class="st1" d="M73.4,27.9l1.1-4.5l3.2,0.8L77.4,25l-2.2-0.5L75,25.4l2.2,0.5l-0.2,0.8l-2.2-0.5l-0.2,1l2.2,0.5l-0.2,0.8
					L73.4,27.9z"/>
				<path class="st1" d="M78.5,29.2l1.6-4.4l3.1,1.1l-0.3,0.8L80.7,26l-0.3,0.9l2.1,0.8l-0.3,0.8l-2.1-0.8l-0.7,1.8L78.5,29.2z"/>
				<path class="st1" d="M84.2,29.5l1.3-2.5l0.9,0.5l-1.3,2.4c-0.3,0.6-0.2,1.1,0.5,1.5c0.6,0.3,1.2,0.1,1.5-0.5l1.3-2.4l0.9,0.5
					l-1.3,2.5c-0.5,1-1.5,1.4-2.8,0.7C83.9,31.5,83.7,30.5,84.2,29.5z"/>
				<path class="st1" d="M90,32.2c0.9-1.2,2.3-1.3,3.4-0.5c0.8,0.6,1,1.3,0.9,2l-0.9-0.1c0-0.4-0.1-0.9-0.5-1.1
					c-0.7-0.5-1.6-0.3-2.1,0.4c-0.5,0.7-0.4,1.6,0.3,2.1c0.3,0.2,0.7,0.3,1,0.3l0.3-0.4l-1-0.7l0.5-0.7l1.8,1.3l-1.1,1.4
					c-0.7,0.1-1.4,0-2.1-0.5C89.5,34.8,89.2,33.4,90,32.2z"/>
				<path class="st1" d="M93.8,38.1l3.2-3.3l2.4,2.3l-0.6,0.6L97.1,36l-0.7,0.7l1.6,1.6l-0.6,0.6l-1.6-1.6l-0.7,0.8l1.7,1.6
					l-0.6,0.6L93.8,38.1z"/>
				<path class="st1" d="M97.5,41.8l3.6-2.9l2.1,2.5l-0.7,0.5l-1.4-1.8l-0.8,0.6l1.4,1.7l-0.7,0.5l-1.4-1.7l-0.8,0.7l1.4,1.8
					l-0.7,0.5L97.5,41.8z"/>
				<path class="st1" d="M105.4,55.1l3.1-1.3l-3.6,0.1l-0.2-0.4l2.6-2.5l-3.1,1.3l-0.4-0.9l4.3-1.8l0.5,1.3l-2.2,2.2l3.1-0.1
					l0.5,1.3l-4.3,1.8L105.4,55.1z"/>
				<path class="st1" d="M108.2,57.6l2.7-0.7l0.2,1l-2.7,0.6c-0.6,0.2-1,0.6-0.8,1.3c0.2,0.7,0.7,1,1.3,0.8l2.7-0.6l0.2,1l-2.7,0.7
					c-1.1,0.3-2-0.2-2.4-1.6C106.5,58.7,107.1,57.9,108.2,57.6z"/>
				<path class="st1" d="M108.4,63.9l0.8,0.5c-0.3,0.4-0.5,0.9-0.5,1.5c0.1,0.5,0.3,0.8,0.6,0.8c0.8-0.1,0-2.7,1.7-2.9
					c0.8-0.1,1.5,0.5,1.6,1.6c0.1,0.7-0.1,1.4-0.5,1.9l-0.8-0.5c0.3-0.4,0.4-0.9,0.4-1.4c0-0.4-0.2-0.6-0.5-0.6
					c-0.7,0.1,0,2.7-1.7,2.9c-0.8,0.1-1.5-0.5-1.7-1.7C107.8,65,108,64.3,108.4,63.9z"/>
				<path class="st1" d="M108.2,69.7l4.6,0.1l-0.1,3.3l-0.9,0l0.1-2.3l-1,0l0,2.2l-0.9,0l0-2.2l-1.1,0l0,2.3l-0.9,0L108.2,69.7z"/>
				<path class="st1" d="M109.8,75.2l2.7,0.4l-0.2,1l-2.7-0.4c-0.6-0.1-1.1,0.2-1.2,0.9c-0.1,0.7,0.3,1.1,0.9,1.2l2.7,0.4l-0.2,1
					l-2.7-0.4c-1.1-0.2-1.8-1-1.6-2.4C107.8,75.6,108.7,75.1,109.8,75.2z"/>
				<path class="st1" d="M105.6,85l3.2,1l-2.8-2.3l0.1-0.4l3.6-0.2l-3.2-1l0.3-0.9l4.4,1.4l-0.4,1.3l-3.1,0.2l2.4,2l-0.4,1.3
					l-4.4-1.4L105.6,85z"/>
			</g>
			<g>
				<path class="st1" d="M42.5,109.6c0.6-1.2,2-1.7,3.2-1.1c1.2,0.6,1.7,2,1.1,3.2c-0.6,1.2-2,1.7-3.2,1.1
					C42.3,112.2,41.8,110.9,42.5,109.6z M45.9,111.3c0.4-0.8,0.2-1.6-0.6-2c-0.8-0.4-1.6-0.1-1.9,0.7c-0.4,0.8-0.2,1.6,0.6,2
					C44.7,112.4,45.5,112.1,45.9,111.3z"/>
				<path class="st1" d="M48.1,114.8l1.5-4.4l3.1,1.1l-0.3,0.8l-2.2-0.7l-0.3,0.9l2.1,0.7l-0.3,0.8l-2.1-0.7l-0.6,1.8L48.1,114.8z"
					/>
				<path class="st1" d="M60.3,117.6l0.3-4.6l1.8,0.1c1.5,0.1,2.4,1.1,2.3,2.4c-0.1,1.4-1.1,2.3-2.6,2.2L60.3,117.6z M63.7,115.5
					c0-0.8-0.4-1.5-1.4-1.5l-0.8,0l-0.2,2.9l0.8,0C63.1,116.9,63.6,116.3,63.7,115.5z"/>
				<path class="st1" d="M67,117.8l-0.4-4.6l3.3-0.3l0.1,0.9l-2.3,0.2l0.1,1l2.2-0.2l0.1,0.9l-2.2,0.2l0.1,1.1l2.3-0.2l0.1,0.9
					L67,117.8z"/>
				<path class="st1" d="M76,116.5l-2.8-2.5l0.6,3l-1,0.2l-1-4.5l1-0.2l2.7,2.4L75,112l1-0.2l1,4.5L76,116.5z"/>
				<path class="st1" d="M83.3,114.2l-1.2-3.1l0,3.6l-0.4,0.2l-2.4-2.7l1.2,3.1l-0.9,0.4l-1.7-4.3l1.3-0.5l2.1,2.3l0-3.1l1.3-0.5
					l1.7,4.3L83.3,114.2z"/>
				<path class="st1" d="M89.5,111l-0.6-0.5l-1.7,1l0.1,0.8l-1,0.6l-0.7-4.9l1.1-0.6l3.8,3.2L89.5,111z M86.6,108.5l0.4,2.1l1.3-0.7
					L86.6,108.5z"/>
				<path class="st1" d="M94.4,107.6l-1.7-0.8l-0.6,0.4l1,1.3l-0.8,0.6l-2.8-3.7l1.7-1.3c0.8-0.6,1.6-0.4,2.2,0.2
					c0.5,0.6,0.3,1.3,0,1.7l1.9,0.8L94.4,107.6z M92.6,105c-0.2-0.3-0.6-0.3-0.9-0.1l-0.8,0.6l0.8,1l0.8-0.6
					C92.7,105.7,92.8,105.3,92.6,105z"/>
				<path class="st1" d="M99.2,103.3l-2.3-0.3l0.1,0.6l1,1l-0.7,0.7l-3.3-3.3l0.7-0.7l1.5,1.5l-0.3-2.6l0.9-0.9l0.2,2.8l3.1,0.4
					L99.2,103.3z"/>
			</g>
		</g>
		<g>
			
				<rect x="74.7" y="57.6" transform="matrix(0.9283 -0.3718 0.3718 0.9283 -17.7956 32.4319)" class="st1" width="1.1" height="9.5"/>
		</g>
		<g>
			<circle class="st1" cx="103" cy="94.2" r="1"/>
		</g>
		<g>
			<g>
				
					<rect x="17" y="94.9" transform="matrix(0.7379 -0.6749 0.6749 0.7379 -60.9441 37.272)" class="st1" width="1.1" height="4.3"/>
			</g>
		</g>
		<g>
			<g>
				
					<rect x="17.4" y="99.7" transform="matrix(0.738 -0.6748 0.6748 0.738 -64.0508 38.8275)" class="st1" width="1.1" height="4.3"/>
			</g>
		</g>
		<g>
			<g>
				<rect x="60.9" y="98.3" class="st1" width="1.1" height="4.3"/>
			</g>
		</g>
		<g>
			<g>
				<rect x="64.8" y="93.9" class="st1" width="1.1" height="4.3"/>
			</g>
		</g>
		<g>
			<g>
				
					<rect x="83.9" y="87.3" transform="matrix(0.7065 -0.7077 0.7077 0.7065 -38.5659 85.9791)" class="st1" width="1.1" height="4.3"/>
			</g>
		</g>
		<g>
			<g>
				
					<rect x="89" y="88.5" transform="matrix(0.7065 -0.7077 0.7077 0.7065 -37.8809 89.9945)" class="st1" width="1.1" height="4.3"/>
			</g>
		</g>
		<g>
			<g>
				
					<rect x="79.8" y="42.4" transform="matrix(0.7064 -0.7078 0.7078 0.7064 -6.3071 70.6004)" class="st1" width="4.3" height="1.1"/>
			</g>
		</g>
		<g>
			<g>
				
					<rect x="74" y="44.3" transform="matrix(0.7069 -0.7074 0.7074 0.7069 -9.4046 67.0335)" class="st1" width="4.3" height="1.1"/>
			</g>
		</g>
		<g>
			<g>
				
					<rect x="24.4" y="43.1" transform="matrix(0.668 -0.7442 0.7442 0.668 -23.6188 34.2501)" class="st1" width="4.3" height="1.1"/>
			</g>
		</g>
		<g>
			<g>
				
					<rect x="24.2" y="47.8" transform="matrix(0.668 -0.7442 0.7442 0.668 -27.2051 35.6253)" class="st1" width="4.3" height="1.1"/>
			</g>
		</g>
	</g>
</g>
</svg>
